# xmcd
# 
# Track frame offsets:
#     150
#     16357
#     36202
#     50167
# 
# Disc length: 914
# 
# Revision: 0
# Processed by: cddbd v1.5.2PL0 Copyright (c) Steve Scherf et al.
# Submitted via: fre:ac v1.0.17
# 
DISCID=2f039004
DTITLE=Die Phier - [2008] - Phiel zu Laut! (Promo I - 08.07.2008)
DYEAR=2008
DGENRE=Deutschrock
TTITLE0=Die Zeit ist reif
TTITLE1=Irgendwo
TTITLE2=Nur mit dir
TTITLE3=Unerreichbar
EXTD=
EXTT0=
EXTT1=
EXTT2=
EXTT3=
PLAYORDER=
